<?xml version="1.0" encoding="utf-8"?>
<!-- Generator: Adobe Illustrator 22.0.1, SVG Export Plug-In . SVG Version: 6.00 Build 0)  -->
<svg version="1.1" id="Calque_1" xmlns="http://www.w3.org/2000/svg" xmlns:xlink="http://www.w3.org/1999/xlink" x="0px" y="0px"
	 width="432px" height="128px" viewBox="0 0 432 128" style="enable-background:new 0 0 432 128;" xml:space="preserve">
<style type="text/css">
	.st0{fill:#2C383F;}
</style>
<g>
	<path class="st0" d="M4.8,50.8c3.3-0.1,6.9-0.1,10.2-0.1c7.9,0,12.6,3.3,12.6,10.5c0,6.8-4.5,10.4-12.1,10.4c-1.7,0-3.2,0-4.7-0.1
		V83h-6C4.8,83,4.8,50.8,4.8,50.8z M10.8,66.4c1,0.1,3,0.1,4.8,0.1c3.3,0,6.1-1.5,6.1-5.3S19.1,56,15.2,56c-1.8,0-3.8,0.1-4.5,0.2
		L10.8,66.4z"/>
	<path class="st0" d="M65.9,50.8v5.4H52.2v7.5h11V69h-11v8.7h14.6V83H46V50.8H65.9z"/>
	<path class="st0" d="M84.9,50.8c2.6,0,7-0.1,9.9-0.1c8.8,0,12,4.5,12,9.5c0,5.4-2.3,7.4-5.3,9.1L111,83h-6.9l-8.6-12.6
		c-0.8,0-1.6,0.1-2.3,0.1c-0.8,0-1.6,0-2.3-0.1V83h-6V50.8z M90.9,65.4c1.3,0.2,2.7,0.2,4,0.2c3.8,0,6-1.8,6-5.1
		c0-2.8-1.7-4.8-5.8-4.8c-1.1,0-3.4,0.1-4.2,0.1V65.4z"/>
	<path class="st0" d="M147.5,50.8v5.4h-13.7V64h11v5.4h-11V83h-6.2V50.8H147.5z"/>
	<path class="st0" d="M185.4,50.8v5.4h-13.7v7.5h11V69h-11v8.7h14.6V83h-20.8V50.8H185.4z"/>
	<path class="st0" d="M229.8,78.1c-3.2,3.6-7.8,5.7-12.6,5.6c-9,0-15.9-6.4-15.9-16.8c0-10.1,6.9-16.7,15.9-16.7
		c4.8-0.2,9.5,1.8,12.6,5.4l-4.6,4c-1.8-2.6-4.8-4.1-7.9-4.1c-5.8,0-9.4,4.9-9.4,11.4s3.6,11.7,9.4,11.7c4.5,0,6.6-2.2,8.2-4.1
		L229.8,78.1z"/>
	<path class="st0" d="M269.4,50.8v5.4h-9.1V83h-6.2V56.2h-9.3v-5.4H269.4z"/>
	<g>
		<path class="st0" d="M300.5,50.1c3.9-0.2,7.6,1.5,10.1,4.4l-2.5,2.4c-1.7-2.4-4.5-3.7-7.5-3.6c-3.9,0-6.1,2-6.1,5
			c0,3.9,3.5,5.1,7.2,6.6c4.2,1.7,8.7,3.6,8.7,9.7c0,6.4-4.6,9.1-10.6,9.1c-4.6,0.1-8.9-2.2-11.4-6l2.8-2.1c1.4,2,4,4.9,8.6,4.9
			c5.5,0,7-3,7-5.9c0-4-3.5-5.4-7.1-6.9c-4.2-1.7-8.8-3.5-8.8-9.3C290.9,53.1,295,50.1,300.5,50.1z"/>
		<path class="st0" d="M349.6,50.8v3.3h-9.8V83h-3.9V54.2H326v-3.3h23.6V50.8z"/>
		<path class="st0" d="M374.8,49.7h0.3L390,83h-4.2l-3.3-7.6h-15.3L364,83h-4.2L374.8,49.7z M381.1,72.3l-4.3-10.4
			c-0.4-0.8-1.4-3.5-1.8-4.6h-0.2c-0.4,1-1.4,3.7-1.8,4.5l-4.6,10.4L381.1,72.3z"/>
		<path class="st0" d="M423,50.8h4.2l-11.4,18.7V83h-4V69.7l-11.4-18.8h4.3l8.1,13.6l1.1,2.1l1.2-2.1L423,50.8z"/>
	</g>
</g>
</svg>
