<?xml version="1.0" encoding="utf-8"?>
<!-- Generator: Adobe Illustrator 22.0.1, SVG Export Plug-In . SVG Version: 6.00 Build 0)  -->
<svg version="1.1" id="Calque_1" xmlns="http://www.w3.org/2000/svg" xmlns:xlink="http://www.w3.org/1999/xlink" x="0px" y="0px"
	 viewBox="0 0 974.3 182.2" style="enable-background:new 0 0 974.3 182.2;" xml:space="preserve">
<style type="text/css">
	.st0{fill:url(#SVGID_1_);}
	.st1{fill:url(#SVGID_2_);}
	.st2{fill:url(#SVGID_3_);}
	.st3{fill:url(#SVGID_4_);}
	.st4{fill:url(#SVGID_5_);}
	.st5{fill:url(#SVGID_6_);}
	.st6{fill:url(#SVGID_7_);}
	.st7{fill:url(#SVGID_8_);}
	.st8{fill:#FFFFFF;}
	.st9{fill:#D1E7ED;}
</style>
<g>
	<g>
		<linearGradient id="SVGID_1_" gradientUnits="userSpaceOnUse" x1="462.5527" y1="178.2911" x2="462.5527" y2="101.9211">
			<stop  offset="0" style="stop-color:#01064F"/>
			<stop  offset="1" style="stop-color:#0D2B80"/>
		</linearGradient>
		<path class="st0" d="M476.9,102.4l-69,77.6h27.5l15-17.1h32.7l-0.8,17.1h32.9l2.1-77.6H476.9z M483.7,151.1h-23l24.4-27.8
			L483.7,151.1z"/>
		<linearGradient id="SVGID_2_" gradientUnits="userSpaceOnUse" x1="556.9834" y1="178.2911" x2="556.9834" y2="101.9211">
			<stop  offset="0" style="stop-color:#01064F"/>
			<stop  offset="1" style="stop-color:#0D2B80"/>
		</linearGradient>
		<polygon class="st1" points="559.6,102.4 523.1,180 555.2,180 590.8,102.4 		"/>
		<linearGradient id="SVGID_3_" gradientUnits="userSpaceOnUse" x1="258.0297" y1="178.2907" x2="258.0297" y2="101.9211">
			<stop  offset="0" style="stop-color:#01064F"/>
			<stop  offset="1" style="stop-color:#0D2B80"/>
		</linearGradient>
		<path class="st2" d="M293.5,102.4h-59l-35.7,77.7h31.6l11.1-24.9h16.9l10,24.9h33.1l-13.3-27.7C316.2,148.4,334,106.1,293.5,102.4
			z M268.1,143.5h-21.4l13.1-29.5h17.1C290.8,114.8,285.8,141.5,268.1,143.5z"/>
		<linearGradient id="SVGID_4_" gradientUnits="userSpaceOnUse" x1="51.501" y1="178.291" x2="51.501" y2="101.921">
			<stop  offset="0" style="stop-color:#01064F"/>
			<stop  offset="1" style="stop-color:#0D2B80"/>
		</linearGradient>
		<path class="st3" d="M103,111.4l-13.1,11.7c-10.2-9.2-22.3-11.4-32.1-5.5c-17.2,10.4-23.2,30.7-23.5,40.2
			c-0.4,11.1,12.5,14.9,41.6-0.4l10.1,12.1c-13.4,8.5-24.9,12.6-41.8,12.6c-25,0-44.3-7.9-44.3-28.6c0-14.6,7.5-23.4,12.4-29.8
			c8.8-11.6,28-23.1,57.6-23.1C82.3,100.5,94.3,103,103,111.4z"/>
		<linearGradient id="SVGID_5_" gradientUnits="userSpaceOnUse" x1="151.3596" y1="178.291" x2="151.3596" y2="101.921">
			<stop  offset="0" style="stop-color:#01064F"/>
			<stop  offset="1" style="stop-color:#0D2B80"/>
		</linearGradient>
		<path class="st4" d="M164.9,100.5c-27.7,0-65.7,15.9-67.7,53.8c-1.4,27.8,30,27.8,37.7,27.8c12.7,0,65.8-4.5,70.6-52.7
			C207.3,110.5,189.9,100.5,164.9,100.5z M176.6,122.9c-0.9,11.3-13.2,45-37.9,45.6c-7.5,0.2-11.7-5.5-11.1-9.2
			c3.1-19.2,17.1-46,36.9-45C168,114.6,177.1,115.4,176.6,122.9z"/>
		<linearGradient id="SVGID_6_" gradientUnits="userSpaceOnUse" x1="368.3794" y1="178.2912" x2="368.3794" y2="101.9212">
			<stop  offset="0" style="stop-color:#01064F"/>
			<stop  offset="1" style="stop-color:#0D2B80"/>
		</linearGradient>
		<path class="st5" d="M419.3,117c-18.4-2.2-21.3-2.5-28.3-2.4c-19.6,0.3-21.5,4.6-21.7,8.9c-0.4,10.8,42.4,14.4,40.9,33
			c-1.6,20.8-31.7,24.4-55.8,25.6c-22.8,1.2-42.3-4.8-42.3-4.8l5.7-13.1c8.4,3.9,25,4,30.4,4.1c5.3,0,21.4,0.2,21.4-8.3
			c-0.1-11.6-41.7-12.7-39.7-34.3c2-22.6,39.1-24.9,58.8-24.9c19.7,0,35.9,3.6,35.9,3.6L419.3,117z"/>
		<linearGradient id="SVGID_7_" gradientUnits="userSpaceOnUse" x1="632.4041" y1="178.2905" x2="632.4041" y2="101.9211">
			<stop  offset="0" style="stop-color:#01064F"/>
			<stop  offset="1" style="stop-color:#0D2B80"/>
		</linearGradient>
		<path class="st6" d="M667.9,102.6h-59l-35.7,77.7h31.6l11.1-24.9h16.9l10,24.9h33.1l-13.3-27.7
			C690.6,148.6,708.4,106.3,667.9,102.6z M642.5,143.7H621l13.1-29.5h17.1C665.2,115.1,660.2,141.7,642.5,143.7z"/>
	</g>
	<g>
		<linearGradient id="SVGID_8_" gradientUnits="userSpaceOnUse" x1="832.9879" y1="179.8386" x2="832.9879" y2="-9.094947e-13">
			<stop  offset="0" style="stop-color:#020053"/>
			<stop  offset="0.8589" style="stop-color:#025FBC"/>
		</linearGradient>
		<path class="st7" d="M691.6,179.8c0,0,0-1.9,0-1.9c1.2-1.9,3.3-3.9,10.4-4.4c13.9-1,34.2-7.2,63.4-33.1L891,13.3
			C898.6,6,901.9,0,919.2,0h55.1l-70.1,179.8H691.6z"/>
		<path class="st8" d="M830.8,151.7l-2.1,1c-1.1,8.9-3.5,17.9,2.9,27.3l73,0l6.1-15.6l-0.2,0c-13.9-57.2-3.3-115.1,22.2-157.4
			C934.9,3.3,830.8,151.7,830.8,151.7z"/>
		<path class="st9" d="M860.9,108.8c-15.4,21.9-27.7,39.5-29.8,42.5c0,0-0.7,0.6-0.7,0.6c-1.1,8.9-0.9,18.3,1.1,28.1l20.6,0
			c-13.5-35.1,15.8-81.2,15.9-81.3C865.6,102.1,863.2,105.5,860.9,108.8z"/>
		<path class="st8" d="M831.6,180h-92.8C772.8,149,861.6,77.3,889,63C889,63,817.7,112.5,831.6,180"/>
	</g>
</g>
</svg>
