<?xml version="1.0" encoding="utf-8"?>
<!-- Generator: Adobe Illustrator 22.0.1, SVG Export Plug-In . SVG Version: 6.00 Build 0)  -->
<svg version="1.1" id="Layer_1" xmlns="http://www.w3.org/2000/svg" xmlns:xlink="http://www.w3.org/1999/xlink" x="0px" y="0px"
	 viewBox="0 0 2126 363.2" style="enable-background:new 0 0 2126 363.2;" xml:space="preserve">
<g>
	<path d="M320,151.7c3.7-1.5,6.5-2.6,8.8-3.2l6.1-1.6v-7.8h-69v7.7l17.9,2.9c6.7,1.1,10.2,2.8,10.2,5.2c0,2.8-5,16.8-15.2,41.9
		c-12.2,30.1-20.3,49.9-24.2,59.4l-39.5-91.8c-2.1-4.8-3.1-8-3.1-9.7c0-2.6,4.5-4.5,13.3-5.8l12.6-1.9v-7.8h-69
		c-13.1-28-35.9-41.9-68.3-41.9c-26.9,0-49.9,9.6-69,28.7C10.5,146.9,0,174.8,0,209.5c0,29.8,9.7,53.8,29.1,72
		c18.5,17.3,41.9,26,70.3,26c17.3,0,34.1-3.2,50.3-9.5c11.9-4.9,20.4-9.8,25.6-14.7l-5.2-10c-18.5,9.3-34.8,13.9-49,13.9
		c-26,0-46.7-9.7-62-29.1c-11.6-14.7-17.9-31.1-19.1-49c53.8-12.4,99.5-27.9,137-46.4c-0.9-3.8-1.9-7.4-3.1-10.9
		c0.8,0.5,1.5,1.1,2.1,1.8c2.3,2.4,5.1,7.1,8.3,14.3l56.1,124.4c1.8,0,4.4-0.9,7.6-2.6c3.2-1.7,5.4-3.2,6.6-4.5
		c6.2-13.6,12-26.4,17.3-38.3l20.4-43.5C307.1,171.7,316.3,154.5,320,151.7z M39.9,190.1c0-19.7,3.5-36.6,10.4-50.7
		c8.4-17.9,21-26.9,37.7-26.9c25.2,0,41.8,17.6,49.9,52.9C106.4,175.7,73.7,184,39.9,190.1z"/>
	<path d="M584.2,111c5.5,0,10.2-1.8,13.8-5.5c3.7-3.7,5.5-7.9,5.5-12.7c0-5-1.9-9.3-5.5-12.9c-3.7-3.6-8.3-5.4-13.8-5.4
		s-10.2,1.8-13.9,5.4c-3.7,3.6-5.5,7.9-5.5,12.9c0,4.8,1.8,9,5.5,12.7C574.1,109.1,578.7,111,584.2,111z"/>
	<path d="M758.8,155.1c-15.4-13.8-35.5-20.7-60.4-20.7c-23.1,0-42.6,6.8-58.5,20.5c-17.5,15.2-26.3,35.6-26.3,61.2
		c0,24.3,8.3,43.4,24.9,57.3c15.2,12.6,34.6,18.9,58.2,18.9c23.8,0,43.5-6.8,59.2-20.5c17.3-15,26-35.8,26-62.5
		C781.8,187,774.1,168.9,758.8,155.1z M738.2,262.4c-8.5,12.4-20.4,18.6-35.7,18.6c-18.5,0-32.9-6.9-43.3-20.8
		c-9.2-12.4-13.8-28.3-13.8-47.8c0-18,3.6-33,10.7-44.9c8.5-14.3,21.1-21.5,37.7-21.5c19.2,0,33.6,7.2,43.3,21.5
		c8.5,12.8,12.8,29.7,12.8,50.8C749.9,236.2,746,251.1,738.2,262.4z"/>
	<path d="M2097.1,203c-45.2-21-45.2-30.1-45.2-38c0-16.4,15.4-16.2,16.7-16.2c21.6,0,30.8,27.2,31.8,37.2h15.7c0-14,0-29-3.3-42.8
		c-8.5-3.9-22.3-9.3-44.6-9.3c-39.8,0-61,14.5-64.9,37.8c-7.2-18.7-23.9-37.8-61.5-37.8c-47.2,0-85.2,26.5-85.2,80.9
		c0,23.2,7.4,41.2,19.7,54c-2.9,0.7-6,1.4-9.5,1.4c-29.8,0-30-28.5-30-62.9v-53.8c10-0.3,26-2,36-3.6v-8.5c-13-1-22.1-1.3-36.5-2.6
		V92.9c0,0-53.5-5.7-53.5,30.4v15.6v14.7v24.9c-5-20.5-21.5-44.6-63.6-44.6c-22,0-41.9,5.8-56.9,17.4c-3.9-7.3-10.9-17.4-27-17.4
		c-18,0-29.8,14.4-38.3,22.9c-1-11.1-1.3-14.1-3.6-22.9c-22,3.9-36,7-61.5,14.4c0.1-0.4,0.1-0.8,0.2-1.3
		c-3.9-0.3-5.9-13.1-50.5-13.1c-43.2,0-67.6,21.7-80.2,43.7c-6-20.3-22-43.7-63.5-43.7c-47.2,0-85.2,26.5-85.2,80.9
		c0,3.4,0.2,6.7,0.5,10c-4.5-8.4-12.2-16.4-23.6-21.7c-45.2-21-45.2-30.1-45.2-38c0-16.4,15.4-16.2,16.7-16.2
		c21.6,0,30.8,27.2,31.8,37.2h15.7c0-14,0-29-3.3-42.8c-8.5-3.9-22.3-9.3-44.6-9.3c-44.2,0-65.5,18-65.5,45.8
		c0,31.8,28.5,41.9,50.1,53.1c18,9.5,23.9,20,23.9,26.9c0,9.2-2.6,18.5-19,18.5c-15.4,0-34.1-16.1-37.7-46.1h-18.7
		c0,18,3,37.3,5.2,49.7c16.4,7.5,30.8,11.1,50.5,11.1c36.1,0,67.2-12.5,68.7-46.2c12.1,30.8,42.4,46.1,78.9,46.1
		c36.7,0,58.3-15.4,67.8-23.9l-1.5-5.4c11.7,15.8,33.5,29.3,73.7,29.3c31.1,0,54.7-16.1,58.3-18.7l-3.6-7.5
		c-6.6,1.3-14.1,2.6-26.9,2.6c-31.1,0-58-21-58-67.5c0-27.9,8.8-49.5,25.9-49.5c16.7,0,31.8,20.8,36.4,26.8h4.9
		c7.2-6,11.6-12,14.3-19h8c9.2,0,9.2,12.1,9.2,34.1l-0.4,98.4c0,0,53.7,5.7,53.7-30.4l0.7-13.9v-79.7c2,0.3,5,1,7.6,1.6
		c14.9,3.7,23,12.5,31.9,13.4c-3.2,9.1-5.1,19.5-5.1,31.2c0,52.1,37,78,84.5,78c36.7,0,58.3-15.4,67.8-23.9l-1.1-3.8
		c8.1,27.7,33.7,27.7,37.9,27.7c35.9,0,51.3-11,60.8-17c14.9,11.3,34.8,17,57,17c32.2,0,52.8-11.9,63.8-20.5
		c0.5,3.4,1.1,6.6,1.6,9.4c16.4,7.5,30.8,11.1,50.5,11.1c37,0,68.8-13.1,68.8-48.8C2126,230.5,2117.5,212.5,2097.1,203z
		 M1310.3,187.2c0-16.1,2.6-38.7,20-38.7c21.6,0,24.6,39,25.2,48.2c-16.1,4.3-28.2,5.9-44.6,7.9
		C1310.9,198.6,1310.3,193.1,1310.3,187.2z M1367.6,269.1c-40.6-0.3-50.5-27.2-53.7-47.8c26.3-5.6,54.3-12.9,78.7-22
		c-1.8,6.5-2.5,12.2-2.5,16.5c0,6.9,0,27.3,12.1,45.3C1396.5,263.6,1385.6,269.1,1367.6,269.1z M1691.7,187.2
		c0-16.1,2.6-38.7,20-38.7c21.6,0,24.6,39,25.2,48.2c-16.1,4.3-28.2,5.9-44.6,7.9C1692.3,198.6,1691.7,193.1,1691.7,187.2z
		 M1784.4,260.6c-5.2,2.3-16.4,8.5-35.4,8.5c-40.6-0.3-50.6-27.2-53.9-47.8c29.7-6.3,61.8-14.8,87.8-25.7v50.6c0,7.1,1,13,2.4,18.1
		L1784.4,260.6z M1914.1,187.2c0-16.1,2.6-38.7,20-38.7c21.6,0,24.6,39,25.2,48.2c-16.1,4.3-28.2,5.9-44.6,7.9
		C1914.8,198.6,1914.1,193.1,1914.1,187.2z M2057.8,278.1c-15.4,0-34.1-16.1-37.7-46.1h-18.7c0,10,0.9,20.7,2.2,30.2
		c-6.1,2.8-16.4,7-32.2,7c-40.6-0.3-50.5-27.2-53.7-47.9c29.7-6.3,61.6-14.8,87.9-25.7c7.7,19.8,29.8,28.1,47.3,37.1
		c18,9.5,23.9,20,23.9,26.9C2076.8,268.9,2074.2,278.1,2057.8,278.1z"/>
	<path d="M1030.6,211.6c-12.2-6.1-24.5-12-36.7-17.9c-13.4-6.9-20.1-15.4-20.1-25.4c0-7.2,2-12.8,6.1-16.9c4-4.1,9.4-6.2,16.1-6.2
		c10.2,0,18.6,4.4,25.3,13.5c5.5,7.6,8.3,16.3,8.3,24.3h10.7c0-16-1.5-29.1-4.5-39.3c-11.3-6.3-23.5-9.4-36.7-9.4
		c-15.7,0-28.9,3.7-39.5,11.1c-10.6,7.4-15.9,17.5-15.9,30.3c0,15,6.7,26.6,20.1,34.8c12.2,6.1,24.5,12,36.7,17.9
		c13.4,7.2,20.1,16.8,20.1,29c0,6.1-2.2,11.6-6.8,16.6c-4.5,5-10.4,7.4-17.8,7.4c-21.7,0-37.2-14.4-46.4-42.4h-9.3
		c0,15,1.8,28.6,5.4,40.2h-0.3c-7.6-0.9-12.3-3.2-14.2-7.1c-0.9-2.2-1.3-7.7-1.3-16.6V207c0-24.5-2.2-41.3-6.6-50.4
		c-7.6-14.8-23.4-22.1-47.4-22.1c-19.4,0-37,6.8-53,20.5v-20.5c-10,0-27.6,3.8-53.7,11.4l1.4,7.8l7.6-2.1c0.2,0,0.9,0.5,2.1-0.5
		c1.2,0,2.1,0,2.8,0c4.6,0,7.6,3,8.8,8.6c0.7,4.1,1.1,15.1,1.1,32.7v63.1c0,8.9-0.6,14.4-1.5,16.6c-1.9,3.9-6.6,6.3-14,7.2l-8.5,1
		v6.8h77v-6.8l-7.7-1c-7.6-0.9-12.2-3.3-14-7.2c-0.9-2.2-1.2-7.7-1.2-16.6v-88.2c10-11.7,21.5-17.6,35.6-17.6
		c18.2,0,30.3,6.5,36.1,19.5c3.5,7.8,5.3,22,5.3,42.6v43.6c0,8.9-0.6,14.4-1.5,16.6c-1.8,3.9-6.6,6.3-14,7.2l-8.5,1v6.8h83.5
		c10.6,4,21.1,5.1,31.4,5.1c17.3,0,31.4-3.6,42.2-11c11.8-8.2,17.7-19.7,17.7-34.4C1050.7,231.9,1044,220.2,1030.6,211.6z"/>
	<polygon points="1730.9,117.4 1685.9,92.5 1685.9,112.4 1730.9,127.3 	"/>
	<polygon points="120.9,55.8 65.9,85.3 65.9,92.5 120.9,73 	"/>
	<path d="M603.6,272.1c-0.9-2.2-1.6-7.7-1.6-16.6v-121c-9,0-30.1,4.5-55.3,11.8c-0.2-0.8-0.3-1.6-0.5-2.3
		c-11.3-6.3-23.5-9.4-36.6-9.4c-15.7,0-28.8,3.7-39.4,11.1c-10.6,7.4-15.9,17.5-15.9,30.3c0,15,6.7,26.6,20.1,34.8
		c12.2,6.1,24.5,12,36.7,17.9c13.4,7.2,20.1,16.8,20.1,29c0,6.1-2.2,11.6-6.7,16.6s-10.4,7.4-17.8,7.4c-21.7,0-37.2-14.4-46.4-42.4
		H451c0,16,2,29.7,5.9,41.6c-0.7,0.1-1.4,0.2-2.2,0.2c-8.5,0-14.3-5-16.8-14.9c-1.6-6.1-2.6-16.8-2.6-32.2v-46.5
		c0-18-2.8-30.9-8.8-38.7c-7.2-9.3-20-14-38.7-14c-27.7,0-50.7,11.5-69.2,34.7c1.8,4.3,4.9,8.9,9.1,12.9h2.8
		c5.8-10,10.3-17.2,13.5-20.7c7.6-7.8,17.3-11.6,29.3-11.6c21.5,0,32.1,13.4,32.1,40.1v7.5c-28,7.8-46.8,14.1-56.3,18.9
		c-22.6,11.5-33.9,26.4-33.9,44.6c0,9.1,4,16.7,12,22.6c8,6,18.3,8.9,31,8.9c19.2,0,36.1-4.6,50.9-13.7c4.6,9.1,13.7,13.7,27.4,13.7
		c9,0,17.5-2.6,25.6-7.7c13.5,5.1,26.7,7.7,39.6,7.7c17.3,0,31.4-3.7,42.2-11.1c11.8-8.2,17.7-19.7,17.7-34.5
		c0-14.8-6.7-26.5-20.1-35.2c-12.2-6.1-24.5-12-36.7-17.9c-13.4-6.9-20.1-15.4-20.1-25.4c0-7.2,2-12.8,6.1-16.9
		c4-4.1,9.4-6.2,16.1-6.2c10.2,0,18.6,4.4,25.3,13.5c5.5,7.6,8.3,16.3,8.3,24.3h10.7c0-11-0.7-20.8-2.2-29.1l9.2-2.4
		c0.2,0,0.9,0.6,2.1-0.4c1.2,0,2.1,0,2.8,0c4.6,0,7.3,3,8.5,8.6c0.7,4.1,0.9,15.1,0.9,32.7c0,0,0,66.6,0,80.9
		c0,11.6,7.3,13.8,12.5,13.8c2.9,0,41.5,0,41.5,0v-6.8l-8.1-1C610.2,278.4,605.4,276,603.6,272.1z M404.9,267.6
		c-6,8.9-15.3,13.3-26.2,13.3c-9.9,0-17.7-2.6-23.5-7.8c-5.8-5.2-8.6-12.5-8.6-21.8c0-13.7,6.5-23.7,19.4-30.7
		c9.9-5.2,21.4-7.6,34.3-7.6h4.6L404.9,267.6L404.9,267.6z"/>
</g>
</svg>
