<?xml version="1.0" encoding="utf-8"?>
<!-- Generator: Adobe Illustrator 22.0.1, SVG Export Plug-In . SVG Version: 6.00 Build 0)  -->
<svg version="1.1" id="Calque_1" xmlns="http://www.w3.org/2000/svg" xmlns:xlink="http://www.w3.org/1999/xlink" x="0px" y="0px"
	 width="5007.5px" height="1000px" viewBox="0 0 5007.5 1000" style="enable-background:new 0 0 5007.5 1000;" xml:space="preserve"
	>
<style type="text/css">
	.st0{fill:#D71921;}
	.st1{fill:#FFFFFF;}
	.st2{fill:#2C383F;}
</style>
<g>
	<g>
		<rect class="st0" width="2329.8" height="1000"/>
		<g>
			<path class="st1" d="M342.7,302.7H146.2c0,0,34.1,29.2,33.2,88.6l0.9,238c0,59.7,23.9,61.4,23.9,61.4h67.1h31.1h95.4
				c43.9,0,59.1-31.4,59.1-48.4l0.7-22.8c0,0-13.9,28.7-71.7,28.7c-9.3,0-80.8-0.1-91-0.1c-28.7,0-26.5-23.9-29.1-44.2V473.3
				c0,0,19.9-0.5,42.5-0.5c7.6,0,15.8-0.4,24.3-0.4c19.8,0,41.6,1.8,62.9,13.9c0,0-21.9-53-87.3-53h-42.3v-25.6v-16.2
				c0,0,0-36.5-8.9-47.3c0,0,56.3,0.2,60.2,0.2c52.1,0,92.3-0.8,134.2,27.1C451.2,371.6,443.2,302.7,342.7,302.7"/>
			<path class="st1" d="M649.4,379.3c-62.8,0-78.8,59.9-78.8,59.9s-1.5-57.8-52-57.8l-49.5,0.1c0,0,28.7,11.8,28.7,61.7l-0.1,184.9
				c0,61,24.6,62.1,24.6,62.1h81.6c-2.2-1.1-31.3-23.1-31.3-62.6v-164c1-7.2,13.3-32,48.4-32c19.9,0,41.9,20.8,41.4,44.1l-0.2,152.4
				c0,61.9,24.3,62.1,24.3,62.1h81.9c0,0-31.3-22-31.3-62.6L737,463.5c3-9.1,13.8-31.4,44.7-31.4c24.6,0,45.3,20.8,44.7,44.1
				c0,0-0.1,139,0,152c0.3,61.2,23.4,61.8,24.2,61.8h0c42.7,0,81.9,0.1,81.9,0.1s-31.2-21.6-31.2-62V461.6c0-64.6-52.8-81.8-92-81.8
				c-52.1,0-67.7,43.5-74.3,58.4C723.2,397.7,682.6,379.3,649.4,379.3"/>
			<path class="st1" d="M990.3,381.4h-49.4c0,0,28.3,12.6,28.3,61.4l-0.1,185.4v0.3c0,61.1,24.4,61.5,25,61.5h0
				c42.6,0,81.5,0.1,81.5,0.1s-31.4-21.1-31.4-62.1l-0.2-0.2l0.1-177.2C1044.1,381.4,1007.8,381.4,990.3,381.4"/>
			<path class="st1" d="M1136.8,381l-49.4,0.1c0,0,28.6,11.7,28.6,61.7l-0.1,185.1c0,61.1,24.6,62.1,24.6,62.1h81.5
				c-2.1-1-31.3-23-31.3-62.6l0.1-151.6c2.1-13.7,9.2-24.3,20-31.3c10.8-7,23.4-10.5,35.7-10.5c18.3,0,36.3,7.6,48.8,22.9v-52.3
				c0,0-7.9-22.2-41.7-22.2c-51.2,0-63.7,60.9-63.7,60.9C1185.8,395.2,1172.9,381,1136.8,381"/>
			<path class="st1" d="M1655.8,310.7c0,0-18,31.1-54.9,61.4c-23.2,19.1-71.8,42.5-71.8,42.5l51.8,0.9l-0.1,214.8
				c0,59.6,24.9,59.6,24.9,59.6c44.8,0,81.4,0.1,81.4,0.1s-31.5-21.1-31.5-60.3l0.1-214.1c21.5,0.1,6.6,0.1,20.1,0.1
				c27.6,0,48.2,12.1,48.2,12.1l0.2-46.6h-68.5L1655.8,310.7L1655.8,310.7z"/>
			<path class="st1" d="M1857.2,379.8h-0.9c-84.4,0.4-129.2,78.4-129.2,162.3c0,85.5,54.9,148.4,135,148.4
				c66.5,0,87.4-24.4,87.4-24.4l0.2-49.8c-18.4,31.7-42.4,39.8-62,39.8c-15.3,0-28-4.9-33.4-7.4c-36.3-16.8-40.8-64.3-40.8-64.3
				c28.7-35.1,64.6-27.6,110.3-75.4C1983.7,446.4,1939.4,379.8,1857.2,379.8 M1808.3,551c0,0-10.2-142.5,43.4-146.5
				c1.2-0.1,2.4-0.1,3.6-0.1c42.1,0,31.7,60.9,18.5,85.2C1853.1,527.6,1826.2,531.5,1808.3,551"/>
			<path class="st1" d="M1006.3,281.9c-21,0-38,16.7-38,37.3c0,20.6,17,37.2,38,37.2c21.1,0,38.1-16.7,38.1-37.2
				C1044.4,298.5,1027.4,281.9,1006.3,281.9"/>
			<path class="st1" d="M1407.6,381c-47,0-76.6,22.6-76.6,22.6v53.8c0,0,16.8-42.7,59.4-42.7c41.5,0,44.5,20.7,44.3,31
				c0,0,4.2,14-6.2,32.1c-19,33.2-166.6,40.2-143.9,154.4c9,45.2,39.1,58.4,77,58.4c36.8,0,59-19.2,68.3-37.1
				c5.5,34.4,22.9,36.4,22.9,36.4c42.6,0,81.5,0.1,81.5,0.1s-31.7-21.1-31.7-61.8V454.8C1502.5,413.3,1456.4,381,1407.6,381
				 M1380.4,655.1c-18.7,0-31.9-19.3-31.9-39.2c0-77.1,63.1-87.7,80-108.3l0.1,129.9C1421.1,644.2,1413.5,655.1,1380.4,655.1"/>
			<path class="st1" d="M2076,379.1c-48.9,0-93.3,32.3-92.4,73.8c0.8,36.4,16.1,60,45.9,82.3c11.7,8.8,25.8,17.3,42.1,26.3
				c23.7,13.2,32.3,29.3,32.6,44.8c0.5,21.9-19,50.5-60.6,50.5c-42.5,0-59.5-43.5-59.5-43.5v55.1c0,0,30.7,21.9,77.7,21.9
				c55.8,0,112.1-42.4,110.8-101.4c-0.3-20.8-7.7-38.4-19.1-53.7c-18.8-25.3-53.2-43-79.7-59.4c-15.3-9.3-23.3-26-23.5-31.9
				c-0.4-10.3,4.6-31.2,46.1-31.2c40.5,0,57.8,42.6,57.8,42.6l-0.1-51.6C2154.1,403.6,2123.1,379.1,2076,379.1"/>
		</g>
	</g>
	<rect x="2485" y="0" class="st2" width="20" height="1000"/>
	<g>
		<path class="st2" d="M2867.6,381.1v23.3h-87.7v258.2h-26.9V404.4h-88.5v-23.3H2867.6z"/>
		<path class="st2" d="M3240.8,381.1v281.5h-26.9V528.8h-160.7v133.8h-26.9V381.1h26.9v124h160.7v-124H3240.8z"/>
		<path class="st2" d="M3599,381.1v23.3h-138.7v101.2h117.1V528h-117.1v111.8h146v22.8h-173V381.1H3599z"/>
		<path class="st2" d="M4005.3,381.1v235h106.5v46.5H3951V381.1H4005.3z"/>
		<path class="st2" d="M4318.6,381.1v281.5h-55.1V381.1H4318.6z"/>
		<path class="st2" d="M4574.3,375c36.3,0,70.2,14.7,91.4,41.2l-34.3,33c-12.2-17.9-34.3-29.8-56.7-29.8c-24.1,0-39.6,10.2-39.6,31
			c0,26.5,24.5,36.7,51.8,47.7c35.5,14.3,76.3,30.2,76.3,85.7c0,61.2-46.9,84.8-97.5,84.8c-42.8,0-77.9-18.8-103.2-54.3l37.5-28.6
			c9.8,15.9,33.4,40,65.7,40c35.1,0,45.7-17.1,45.7-37.1c0-28.1-28.6-40-58.7-53.8c-33.9-15.9-69.3-34.3-69.3-82
			C4483.4,404,4522.9,375,4574.3,375z"/>
		<path class="st2" d="M5007.5,381.1V428h-80v234.6h-54.3V428h-82v-46.9H5007.5z"/>
	</g>
</g>
</svg>
