<?xml version="1.0" encoding="utf-8"?>
<!-- Generator: Adobe Illustrator 22.0.1, SVG Export Plug-In . SVG Version: 6.00 Build 0)  -->
<svg version="1.1" id="Calque_1" xmlns="http://www.w3.org/2000/svg" xmlns:xlink="http://www.w3.org/1999/xlink" x="0px" y="0px"
	 width="500px" height="200px" viewBox="0 0 500 200" style="enable-background:new 0 0 500 200;" xml:space="preserve">
<style type="text/css">
	.st0{fill:#1D1D1B;}
</style>
<g>
	<path class="st0" d="M164.8,40.3c0.9,0.1,1.9,0.2,2.8,0.3c3.2,0.4,6.2,1.2,9.1,2.7c3.9,2.1,6.6,5.2,7.8,9.5
		c1.4,4.9,1.4,9.8-0.6,14.6c-1.7,4.1-4.6,6.9-8.6,8.6c-0.1,0-0.2,0.1-0.3,0.1c0,0,0,0-0.1,0.1c2.1,1.5,3,3.7,4.1,5.9
		c0.5,1.1,1,2.2,1.5,3.4c3.3,7.6,6.6,15.1,9.9,22.7c0.1,0.2,0.1,0.3,0.2,0.6c-0.2,0-0.3,0-0.4,0c-2.4,0-4.8,0-7.2,0
		c-0.3,0-0.5-0.1-0.6-0.4c-3.5-7.9-6.9-15.9-10.4-23.8c-0.4-0.9-0.9-1.8-1.4-2.7c-1.1-2-2.9-3-5.1-3.1c-1.1-0.1-2.1-0.1-3.2-0.1
		c-5.2,0-10.5,0-15.7,0h-0.6v30.1h-7.5v-0.6c0-22.4,0-44.7,0-67.1c0-0.2,0-0.5,0-0.7H164.8z M145.9,72.1c0.2,0,0.3,0,0.4,0
		c5.7,0,11.5,0,17.2,0c2.2,0,4.5-0.4,6.6-1.1c2.8-1,5.2-2.6,6.5-5.4c1.3-2.7,1.6-5.6,1.1-8.6c-0.6-3.5-2.4-6.3-5.6-8
		c-2.7-1.4-5.5-2-8.5-2c-5.7-0.1-11.5-0.1-17.2-0.1c-0.1,0-0.3,0-0.4,0V72.1z"/>
	<path class="st0" d="M35.5,40.4H43v61.8h27.7v6.5c-0.1,0-0.3,0-0.4,0c-11.5,0-22.9,0-34.4,0c-0.1,0-0.2,0-0.3,0V40.4z"/>
	<path class="st0" d="M284.8,108.8h-7v-2.4c-0.2,0.1-0.2,0.1-0.3,0.1c-4.1,2.4-8.5,3.4-13.2,3.1c-5.6-0.4-10.4-2.5-14.4-6.4
		c-3.6-3.5-5.9-7.8-6.7-12.8c-1.2-7.1-0.1-13.8,4.3-19.6c3.6-4.7,8.3-7.7,14.2-8.7c4.9-0.8,9.7-0.1,14.3,1.7
		c0.6,0.2,1.2,0.5,1.8,0.8V40.4h7V108.8z M277.8,85.8c0-4.4,0-8.7,0-13.1c0-0.3,0-0.5-0.3-0.7c-4.2-2.5-8.7-3.8-13.7-3.2
		c-4.7,0.5-8.4,2.8-11.1,6.7c-1.7,2.4-2.5,5-2.7,7.9c-0.3,2.9,0,5.8,1,8.5c1.8,5,7,10.8,15.8,10.9c3.9,0,7.4-1.2,10.7-3.3
		c0.3-0.2,0.3-0.4,0.3-0.7C277.8,94.5,277.8,90.1,277.8,85.8"/>
	<path class="st0" d="M430.6,86.5c0.1,5,1.5,9.4,5.5,12.6c3,2.4,6.4,3.7,10.2,3.6c4.7-0.1,8.9-1.8,12.1-5.4c0.1-0.1,0.3-0.2,0.4-0.1
		c1.9,0.9,3.9,1.9,5.8,2.9c0,0,0,0,0.1,0.1c-0.8,1.3-1.8,2.4-2.9,3.4c-3.2,2.8-7,4.5-11.1,5.4c-5.2,1.1-10.2,0.6-15-1.8
		c-6.3-3.2-10.1-8.2-11.5-15.1c-0.7-3.5-0.9-7-0.5-10.6c0.8-6.6,3.7-12,9-16.1c3-2.3,6.5-3.5,10.3-3.8c3.6-0.3,7.2,0.1,10.6,1.5
		c5.3,2.2,8.8,6.1,10.7,11.5c1.3,3.8,1.7,7.7,1.6,11.7c0,0.1,0,0.1,0,0.2H430.6z M431.5,80.4h26.8c-0.1-0.8-0.2-1.5-0.4-2.3
		c-0.9-4.1-3.1-7.1-7.1-8.7c-2.4-0.9-4.9-1.2-7.4-0.9c-4.5,0.6-7.9,2.9-10.1,6.9C432.3,76.9,431.7,78.6,431.5,80.4"/>
	<path class="st0" d="M234.8,100.2c-1.4,2.2-3.3,3.9-5.5,5.3c-4.5,2.8-9.3,4.2-14.7,4c-10.4-0.4-18.7-7.6-20.5-17.6
		c-0.9-4.9-1-9.8,0.4-14.6c1.8-6.1,5.4-10.8,11.2-13.7c2.5-1.3,5.1-1.8,7.9-2c3.8-0.2,7.5,0.3,10.9,2c4.1,1.9,7.1,5,8.9,9.1
		c2,4.4,2.4,9,2.3,13.8h-35.2c0,0.6,0,1.2,0.1,1.8c0.2,2.7,0.9,5.4,2.4,7.6c2.5,3.6,5.9,5.8,10.2,6.6c5,0.9,9.5-0.4,13.5-3.6
		c0.6-0.5,1.1-1.1,1.6-1.6c0.1-0.1,0.3-0.2,0.4-0.1C230.8,98.2,232.8,99.2,234.8,100.2 M228.2,80.4c-0.1-0.8-0.2-1.6-0.4-2.4
		c-0.8-3.8-2.8-6.7-6.4-8.3c-3.7-1.7-7.5-1.8-11.3-0.4c-4.4,1.6-6.9,4.9-8.3,9.2c-0.2,0.6-0.3,1.3-0.5,1.9H228.2z"/>
	<path class="st0" d="M316,61.7c6.7,0.1,12.2,2.1,16.7,6.4c3.7,3.6,6,7.9,6.8,13c1,6.4,0.2,12.6-3.5,18.2c-3.5,5.3-8.3,8.7-14.6,9.9
		c-7.5,1.4-14.4,0.1-20.3-5c-4.4-3.8-7.1-8.6-7.9-14.4c-0.8-5.5-0.2-10.8,2.5-15.7c3.5-6.4,8.7-10.4,15.9-11.9
		C313.2,61.9,314.9,61.8,316,61.7 M332.7,85.8c-0.1-0.9-0.1-1.8-0.2-2.7c-0.1-0.5-0.2-1-0.3-1.6c-1.6-7.3-8.5-14.5-19.1-12.6
		c-5,0.9-8.5,3.8-10.9,8.2c-2,3.6-2.3,7.6-1.8,11.6c0.6,4.5,2.8,8.2,6.4,11c3.2,2.5,7,3.3,11,3c4.6-0.3,8.3-2.3,11.1-5.8
		C331.6,93.7,332.6,89.9,332.7,85.8"/>
	<path class="st0" d="M82.8,72c-0.9-1.7-1.8-3.5-2.7-5.3c0.9-0.5,1.8-1.1,2.7-1.6c3.7-1.9,7.7-3.1,11.9-3.4
		c3.8-0.3,7.6,0.3,10.9,2.3c3.5,2.1,5.3,5.3,5.5,9.3c0.1,1.8,0,3.5,0,5.3c0,9.8,0,19.6,0,29.4v0.6h-7v-3.4c-0.2,0.1-0.4,0.2-0.5,0.3
		c-3.1,1.7-6.4,3-9.9,3.6c-3.2,0.6-6.4,0.5-9.5-0.6c-4.2-1.5-6.8-4.4-7.7-8.8c-0.8-4.3,0.1-8.2,3.1-11.5c2.1-2.4,4.7-4,7.7-5
		c3-1.1,6.1-1.8,9.3-2.2c2.3-0.3,4.6-0.5,6.9-0.8c0.2,0,0.3,0,0.5-0.1c0,0,0.1-0.1,0.1-0.1c0-2,0.1-3.9-0.1-5.9
		c-0.3-3.5-2.2-5.5-5.7-6.1c-3.5-0.6-6.9-0.1-10.1,1.3c-1.6,0.7-3.2,1.5-4.8,2.3C83.2,71.9,83,71.9,82.8,72 M104.1,86
		c-1.5,0.1-2.9,0.2-4.3,0.4c-2.9,0.3-5.7,0.8-8.5,1.8c-2.3,0.8-4.5,1.9-6.1,3.7c-1.4,1.6-2.2,3.3-2,5.5c0.3,3,2.3,5.3,5.3,5.9
		c1.9,0.4,3.7,0.2,5.6-0.1c3.5-0.7,6.8-2,9.7-4.1c0.3-0.2,0.4-0.4,0.4-0.8c0-3.9,0-7.8,0-11.7V86z"/>
	<path class="st0" d="M354.7,62.6v0.5c0,9.3,0,18.7,0,28c0,2,0.3,4,1.2,5.8c1.6,3.2,4.1,5.1,7.7,5.6c2.2,0.3,4.4,0.1,6.5-0.5
		c2.6-0.8,4.5-2.5,6.1-4.5c0.8-1,1.5-2,2.2-3c0.2-0.2,0.3-0.6,0.3-0.9c0-10.2,0-20.3,0-30.5v-0.6h6.9v46.1h-6.9v-5.2
		c-0.2,0.2-0.4,0.4-0.5,0.5c-2.5,2.8-5.6,4.7-9.4,5.3c-5.3,0.8-10.3,0.1-14.7-3.3c-3.2-2.5-5.1-5.8-5.9-9.7
		c-0.4-1.8-0.5-3.6-0.5-5.5c0-9.2,0-18.5,0-27.7v-0.5H354.7z"/>
	<path class="st0" d="M400.2,62.6V48.1h7v14.5h10.7v6.1h-10.7c0,0.2,0,0.4,0,0.5c0,8.8,0,17.7,0,26.5c0,1.1,0,2.2,0.2,3.3
		c0.5,2.6,2.3,4,4.9,3.8c2-0.1,3.9-0.5,5.9-0.7c0.1,0,0.2,0,0.4-0.1c0.5,2.2,0.9,4.3,1.4,6.5c-1.1,0.2-2.2,0.5-3.3,0.7
		c-2.1,0.3-4.3,0.6-6.5,0.4c-3.2-0.2-5.9-1.5-8-3.9c-1.5-1.8-2.1-3.9-2.1-6.2c0-10,0-20.1,0-30.1v-0.7h-9.4v-6.1H400.2z"/>
	<g>
		<path class="st0" d="M34.2,132.7h3.5l7.4,21.4l7.3-21.4h3.3l-9.2,26.8h-3.1L34.2,132.7z"/>
		<path class="st0" d="M104.5,146.1c0-8.5,4.4-13.8,11-13.8c6.5,0,11,5.3,11,13.6c0,8.5-4.4,13.8-11,13.8
			C108.9,159.7,104.5,154.5,104.5,146.1z M107.9,146.1c0,6.3,3,10.5,7.6,10.5c4.6,0,7.6-4.2,7.6-10.7c0-6.3-3-10.5-7.6-10.5
			C110.9,135.4,107.9,139.6,107.9,146.1z"/>
		<path class="st0" d="M182.5,148.9l-7.7-16.2h3.5l6,12.7l5.9-12.7h3.3l-7.7,16.2v10.4h-3.3V148.9z"/>
		<path class="st0" d="M249,132.5h3.1l9.2,26.8h-3.5l-2.4-7.1h-9.8l-2.4,7.1h-3.3L249,132.5z M250.4,137.9l-4,11.5h7.9L250.4,137.9z
			"/>
		<path class="st0" d="M321.2,159.7c-7.8,0-11.1-6.3-11.1-13.7c0-7.4,3.3-13.7,11.3-13.7c5.1,0,8,2.7,9.1,6.6l-3.3,1.1
			c-0.9-2.6-2.4-4.7-6-4.7c-5.6,0-7.8,5-7.8,10.7c0,5.7,2.3,10.7,7.8,10.7c5.1,0,6.8-4,6.8-8.5v-0.1h-6.4v-2.9h9.5
			c0.2,0.9,0.2,2.2,0.2,2.9C331.3,154.7,328.2,159.7,321.2,159.7z"/>
		<path class="st0" d="M383.8,132.7h14v2.9h-10.7v8h8.5v2.9h-8.5v10h11.1v2.9h-14.4V132.7z"/>
		<path class="st0" d="M462.1,139.5c-0.9-2.6-2.5-4.3-5.6-4.3c-2.5,0-4.2,1.4-4.2,3.6c0,2.1,1.2,3.5,4.7,5c6,2.5,8.5,4.3,8.5,8.5
			c0,4.6-3.9,7.3-8.2,7.3c-4.9,0-8.2-2.9-9-7l3-0.9c0.8,2.9,2.7,5.1,6,5.1c2.4,0,4.8-1.6,4.8-4.4c0-2.4-1.1-3.6-6.1-5.6
			c-4.9-1.9-7.1-4.3-7.1-7.9c0-4.1,3.3-6.7,7.8-6.7c4.7,0,7.2,2.6,8.3,6.2L462.1,139.5z"/>
	</g>
</g>
</svg>
