<svg id="Calque_2" data-name="Calque 2" xmlns="http://www.w3.org/2000/svg" viewBox="0 0 1024 305"><defs><style>.cls-1{fill:#051039;}.cls-2{fill:red;}</style></defs><title>Plan de travail 1</title><path class="cls-1" d="M273.44,149c-9.31,10.36-20.86,17.26-38,17.26-26.12,0-49.83-18.76-49.83-48,0-26,21.31-45.94,49.38-45.94,14.86,0,26.42,6,36.33,15.31L265,93.71A41.86,41.86,0,0,0,235,81c-23,0-39.33,16.21-39.33,37.23,0,24.31,18.17,39.33,39.78,39.33,12.76,0,23.87-5.11,31.68-14.72Z"/><path class="cls-1" d="M328.69,72.24c26.56,0,48.48,20.72,48.48,46.69s-21.92,47.28-48.48,47.28-48.34-21.31-48.34-47.28S302.12,72.24,328.69,72.24Zm0,85.27A38.22,38.22,0,0,0,367,118.93c0-21.17-16.66-38-38.27-38s-38.28,16.81-38.28,38A38.22,38.22,0,0,0,328.69,157.51Z"/><path class="cls-1" d="M389.78,164.26V74.19h9.91V155.7h48.49v8.56Z"/><path class="cls-1" d="M461.69,164.26V74.19h9.91V155.7h48.48v8.56Z"/><path class="cls-1" d="M533.59,164.26V74.19h60.95v8.56h-51v31.37h48.79v8.41H543.5V155.7h50.89v8.56Z"/><path class="cls-1" d="M694.06,149c-9.3,10.36-20.86,17.26-38,17.26-26.12,0-49.84-18.76-49.84-48,0-26,21.31-45.94,49.38-45.94,14.87,0,26.42,6,36.33,15.31l-6.3,6.16a41.9,41.9,0,0,0-30-12.76c-23,0-39.32,16.21-39.32,37.23,0,24.31,18.16,39.33,39.78,39.33,12.75,0,23.86-5.11,31.67-14.72Z"/><path class="cls-1" d="M727.84,164.26V82.75h-30V74.19h69.65v8.56H737.75v81.51Z"/><path class="cls-1" d="M787,164.26V74.19h9.9v90.07Z"/><path class="cls-1" d="M862,72.24c26.57,0,48.48,20.72,48.48,46.69S888.54,166.21,862,166.21s-48.34-21.31-48.34-47.28S835.4,72.24,862,72.24Zm0,85.27a38.22,38.22,0,0,0,38.27-38.58c0-21.17-16.66-38-38.27-38s-38.28,16.81-38.28,38A38.22,38.22,0,0,0,862,157.51Z"/><path class="cls-1" d="M999.39,164.26,935.45,88.6v75.66h-9.61V74.19h9.46l64.09,75.21V74.19H1009v90.07Z"/><path class="cls-2" d="M142.76,74.19H116.34L82.53,142.94h-43V74.19H14.89v90.07H98.17l8.41-18h44.88l8,18h28.67Zm-27.18,52.54L129.4,97l13.21,29.72Z"/><path class="cls-2" d="M983.87,190.63l-21.08,30.5c-2.78,4-7.28,7.88-12.72,8.29v.94h23.45c6.22,0,10.76-4.05,13.84-8.52L1009,190.63Z"/><path class="cls-1" d="M595.66,230.36V194h10.61v36.38Zm244.76,0-25.5-21.6v21.6h-9V194h7.61l25.16,21.26V194h9v36.38Zm55.46-24.64a37.65,37.65,0,0,0-17.36-4.27c-8.55,0-14.93,4.42-14.93,10.57s6.49,10.76,14.86,10.76a33.94,33.94,0,0,0,17.77-4.87v9A41.53,41.53,0,0,1,878,231c-14.55,0-26-7.42-26-19,0-11.4,11.66-18.71,26-18.71a47.55,47.55,0,0,1,17.92,3.34v9.07ZM665.33,230.36V194h35.48v7.8H676v9h24.3v7.8H676v11.74Zm237,0V194h36.83v7.8H912.91v6.3h25.8v7.8h-25.8v6.68H939v7.8ZM737.67,216.71l14.66,13.65H741a7.29,7.29,0,0,1-5.47-2.07l-10-9.67a1.19,1.19,0,0,0-.86-.3h-6.79v12H707.3V194h23c11.93,0,17,5.37,17,11.29,0,6.9-6.14,10.2-9.56,11.44Zm-8.47-6c4.2,0,6.22-2.14,6.22-4.54s-1.8-4.39-6.22-4.39H717.91v8.93Zm-82.61,6,14.66,13.65H649.92a7.29,7.29,0,0,1-5.47-2.07l-10-9.67a1.18,1.18,0,0,0-.86-.3h-6.79v12H616.21V194h23c11.92,0,16.95,5.37,16.95,11.29,0,6.9-6.15,10.2-9.56,11.44Zm-8.48-6c4.2,0,6.23-2.14,6.23-4.54s-1.8-4.39-6.23-4.39H626.82v8.93Zm-59.06,19.65-4.65-8H554.08l-4.24,8H539.71L560,194h9.23l22.95,36.34ZM558.12,214.8H570l-6.14-11.1-5.71,11.1ZM791,230.36l-4.54-8h-19.8l-4.08,8h-9.87L772.4,194h9l22.31,36.34ZM770.6,214.8h11.55l-6-11.1-5.55,11.1Z"/></svg>